<svg width="50" height="42" viewBox="0 0 50 42" fill="none" xmlns="http://www.w3.org/2000/svg">
<path d="M10.0007 7.72059C12.0709 7.72059 13.7505 5.9915 13.7505 3.86029C13.7505 1.72909 12.0709 0 10.0007 0C7.93049 0 6.25088 1.72909 6.25088 3.86029C6.25088 5.9915 7.93049 7.72059 10.0007 7.72059ZM39.9993 7.72059C42.0695 7.72059 43.7491 5.9915 43.7491 3.86029C43.7491 1.72909 42.0695 0 39.9993 0C37.9291 0 36.2495 1.72909 36.2495 3.86029C36.2495 5.9915 37.9291 7.72059 39.9993 7.72059ZM49.8191 37.6459L46.3818 28.7994L43.171 32.531L43.0148 33.9947L45.1787 39.56C45.5693 40.5653 46.5068 41.1765 47.4989 41.1765C47.8114 41.1765 48.1239 41.1202 48.4286 40.9915C49.7098 40.4607 50.3348 38.9648 49.8191 37.6459ZM47.1474 20.7732L45.7022 14.3233C45.3428 12.7148 44.2491 11.3637 42.7726 10.7123C41.3274 10.0689 39.7259 10.1735 38.39 10.9777C36.6166 12.0554 35.2886 13.7523 34.6324 15.7548L33.7496 18.4812L32.4996 19.3015V11.5809C32.4996 10.8732 31.9372 10.2941 31.2497 10.2941H18.7503C18.0628 10.2941 17.5004 10.8732 17.5004 11.5809V19.3015L16.2426 18.4812L15.3598 15.7548C14.7114 13.7443 13.3755 12.0554 11.6022 10.9777C10.2585 10.1735 8.66483 10.0689 7.21958 10.7123C5.74309 11.3637 4.64939 12.7148 4.29003 14.3233L2.8526 20.7732C2.49324 22.3817 2.90728 24.0866 3.97755 25.3332L9.2273 31.4373L10.0163 38.8844C10.1569 40.1953 11.235 41.1765 12.5006 41.1765C12.5943 41.1765 12.6803 41.1684 12.774 41.1604C14.1489 41.0076 15.1333 39.7369 14.9848 38.3215L14.1958 30.8582C14.0786 29.8127 13.6568 28.8396 12.9771 28.0434L9.59447 24.1027L10.9694 18.449L11.5006 20.0896C11.8209 21.0949 12.4303 21.9715 13.4146 22.7114L17.4066 25.3251C17.766 25.5584 18.3519 25.6951 18.7503 25.7272H31.2497C31.6481 25.6951 32.234 25.5584 32.5934 25.3251L36.5854 22.7114C37.5697 21.9715 38.1791 21.1029 38.4994 20.0896L39.0306 18.449L40.4055 24.1027L37.0229 28.0434C36.3432 28.8396 35.9214 29.8127 35.8042 30.8582L35.0152 38.3215C34.8667 39.7369 35.8589 41.0076 37.226 41.1604C37.3197 41.1684 37.4057 41.1765 37.4994 41.1765C38.7572 41.1765 39.8431 40.2034 39.9837 38.8844L40.7727 31.4373L46.0224 25.3332C47.0849 24.0866 47.5068 22.3817 47.1474 20.7732ZM3.61819 28.7994L0.180849 37.6459C-0.334752 38.9648 0.290219 40.4607 1.57141 40.9915C2.88385 41.5223 4.31347 40.8548 4.82126 39.56L6.98522 33.9947L6.82898 32.531L3.61819 28.7994Z" fill="white"/>
</svg>
