<svg width="40" height="50" viewBox="0 0 40 50" fill="none" xmlns="http://www.w3.org/2000/svg">
<path d="M34.375 0H4.6875C2.09863 0 0 2.09863 0 4.6875V8.88672C0 9.15635 0.218652 9.375 0.488281 9.375H38.5742C38.8438 9.375 39.0625 9.15635 39.0625 8.88672V4.6875C39.0625 2.09863 36.9639 0 34.375 0ZM25.7812 6.25H25C24.1367 6.25 23.4375 5.55078 23.4375 4.6875C23.4375 3.82422 24.1367 3.125 25 3.125H25.7812C26.6445 3.125 27.3437 3.82422 27.3437 4.6875C27.3437 5.55078 26.6445 6.25 25.7812 6.25ZM32.0312 6.25H31.25C30.3867 6.25 29.6875 5.55078 29.6875 4.6875C29.6875 3.82422 30.3867 3.125 31.25 3.125H32.0312C32.8945 3.125 33.5937 3.82422 33.5937 4.6875C33.5937 5.55078 32.8945 6.25 32.0312 6.25Z" fill="white"/>
<path d="M0 12.9883V48.4375C0 49.3005 0.699512 50 1.5625 50H37.5C38.363 50 39.0625 49.3005 39.0625 48.4375V12.9883C39.0625 12.7187 38.8438 12.5 38.5742 12.5H0.488281C0.218652 12.5 0 12.7187 0 12.9883ZM19.5312 17.1875C26.417 17.1875 32.0205 22.7842 32.0312 29.668C32.1113 36.375 26.5547 42.1875 19.5312 42.1875C12.5693 42.1875 7.01953 36.4961 7.03125 29.6865C7.03125 22.7949 12.6387 17.1875 19.5312 17.1875Z" fill="white"/>
<path d="M19.5312 39.0625C23.5811 39.0625 27.0386 36.4814 28.3467 32.8788C28.4787 32.5151 28.1544 32.1474 27.7778 32.2359C26.6747 32.4951 25.6839 32.6046 24.7812 32.6046C18.821 32.6046 17.3568 28.2687 10.5909 30.5894C10.3683 30.6658 10.231 30.8921 10.2669 31.1247C10.9607 35.6142 14.8502 39.0625 19.5312 39.0625Z" fill="white"/>
<path d="M20.1465 28.251C22.4905 29.2554 24.5472 30.1351 28.4716 28.7857C28.6941 28.7093 28.8314 28.4831 28.7955 28.2506C28.1017 23.7609 24.2122 20.3125 19.5312 20.3125C15.4823 20.3125 12.0249 22.8927 10.7159 26.4951C10.5833 26.8601 10.9097 27.226 11.2877 27.1373C15.3322 26.1885 17.8619 27.272 20.1465 28.251Z" fill="white"/>
</svg>
