<svg width="60" height="60" viewBox="0 0 60 60" fill="none" xmlns="http://www.w3.org/2000/svg">
<path d="M10.6338 21.1797C9.98697 21.1797 9.46191 21.7043 9.46191 22.3511C9.46191 22.9979 9.98697 23.523 10.6338 23.523C11.2806 23.523 11.8057 22.9979 11.8057 22.3511C11.8057 21.7043 11.2806 21.1797 10.6338 21.1797Z" fill="#FFF"/>
<path d="M43.4674 35.1819C43.2482 34.9622 42.9497 34.8386 42.6389 34.8386C42.627 34.8408 42.1765 34.8157 41.8103 35.1819L40.9822 36.01L38.2897 33.3179C44.2315 24.9888 43.3278 13.4993 36.0104 6.18241C27.7679 -2.06012 14.4259 -2.06149 6.18241 6.18241C-2.06012 14.4245 -2.06149 27.767 6.18241 36.0104C13.4815 43.31 24.9664 44.2466 33.3174 38.2897L36.01 40.9822L35.1819 41.8103C34.7246 42.2676 34.7241 43.0101 35.1819 43.4679L49.997 58.2817C52.2863 60.5723 55.9919 60.5737 58.2817 58.2821C60.5723 55.9933 60.5732 52.2872 58.2817 49.9975L43.4674 35.1819ZM37.6671 39.3251L35.1581 36.8161C35.4497 36.5547 35.7349 36.2865 36.0104 36.0104C36.2865 35.7349 36.5547 35.4497 36.8161 35.1585L39.3251 37.6675L37.6671 39.3251ZM7.83953 34.3533C0.512526 27.0268 0.511611 15.167 7.83953 7.83953C15.1661 0.512526 27.0259 0.511611 34.3533 7.83953C41.6638 15.1496 41.7009 27.0066 34.3533 34.3533C26.9229 41.7847 15.0663 41.5805 7.83953 34.3533ZM42.6389 37.6675L45.9527 40.9818L40.9818 45.9527L37.6675 42.6389L42.6389 37.6675ZM56.6245 56.625C55.2513 57.9997 53.0288 58.0001 51.6546 56.625L42.6389 47.6098L47.6098 42.6389L56.625 51.655C57.9992 53.0279 58.0006 55.2503 56.6245 56.625Z" fill="#FFF"/>
<path d="M32.6969 9.49714C26.2886 3.08887 15.907 3.08521 9.49595 9.49622C3.10096 15.8926 3.10096 26.3004 9.49595 32.6972C15.9079 39.1086 26.2836 39.1091 32.696 32.6972C39.0923 26.3004 39.0928 15.893 32.6969 9.49714ZM31.0389 31.0396C25.5434 36.5351 16.6499 36.5365 11.1531 31.0401C5.67177 25.5569 5.67177 16.636 11.1531 11.1529C16.6458 5.6606 25.5452 5.65923 31.0398 11.1543C36.522 16.6365 36.5215 25.5569 31.0389 31.0396Z" fill="#FFF"/>
<path d="M21.0967 9.37988C17.9646 9.37988 15.0221 10.5985 12.8111 12.8108C11.5293 14.0926 10.5859 15.6069 10.0073 17.3125C9.79945 17.925 10.1272 18.5906 10.7402 18.7984C11.354 19.0067 12.0187 18.6771 12.2265 18.0655C12.6884 16.7037 13.4428 15.4933 14.4682 14.4675C16.237 12.6982 18.5908 11.7236 21.0967 11.7236C21.7439 11.7236 22.2685 11.199 22.2685 10.5518C22.2685 9.90448 21.7439 9.37988 21.0967 9.37988Z" fill="#FFF"/>
</svg>
