<svg width="50" height="39" viewBox="0 0 50 39" fill="none" xmlns="http://www.w3.org/2000/svg">
<path d="M50 8.82568V1.46484C50 0.655859 49.3441 0 48.5352 0H1.46484C0.655859 0 0 0.655859 0 1.46484V8.82568H50Z" fill="white"/>
<path d="M22.0581 20.5933H27.9419C28.7563 20.5933 29.4189 19.9307 29.4189 19.1162C29.4189 18.3018 28.7563 17.6392 27.9419 17.6392H22.0581C21.2437 17.6392 20.5811 18.3018 20.5811 19.1162C20.5811 19.9307 21.2437 20.5933 22.0581 20.5933Z" fill="white"/>
<path d="M2.94189 11.7554V36.7676C2.94189 37.5766 3.59775 38.2324 4.40674 38.2324H45.5933C46.4022 38.2324 47.0581 37.5766 47.0581 36.7676V11.7554H2.94189ZM22.0581 14.7095H27.9419C30.3718 14.7095 32.3486 16.6863 32.3486 19.1162C32.3486 21.5461 30.3718 23.5229 27.9419 23.5229H22.0581C19.6282 23.5229 17.6514 21.5461 17.6514 19.1162C17.6514 16.6863 19.6282 14.7095 22.0581 14.7095Z" fill="white"/>
</svg>
