<svg width="60" height="56" viewBox="0 0 60 56" fill="none" xmlns="http://www.w3.org/2000/svg">
<path d="M57.1887 0H50.4142C48.8642 0 47.603 1.26117 47.603 2.81121V45.653C47.603 45.6622 47.6078 45.7566 47.6081 45.7598C47.6249 45.9425 47.6837 46.1129 47.7746 46.2616L52.793 54.7377C53.004 55.0939 53.3873 55.3125 53.8014 55.3125C54.2156 55.3125 54.5989 55.0939 54.8098 54.7377L59.8283 46.2616C59.95 46.0772 59.9954 45.7534 59.9957 45.7502C59.9961 45.7459 59.9999 45.6622 59.9999 45.653C59.9999 45.6523 59.9999 2.81121 59.9999 2.81121C59.9999 1.26117 58.7388 0 57.1887 0ZM49.9468 44.4789V9.72656H52.6297V44.4789H49.9468ZM54.9733 9.72656H57.6562V44.4789H54.9733V9.72656ZM49.9468 2.81121C49.9468 2.55352 50.1565 2.34375 50.4142 2.34375H57.1887C57.4465 2.34375 57.6562 2.55352 57.6562 2.81121V7.38281H49.9468V2.81121ZM53.8014 51.8405L50.8305 46.8226H56.7722L53.8014 51.8405Z" fill="#FFF"/>
<path d="M13.0772 14.189C8.91443 14.189 5.52783 17.5756 5.52783 21.7383C5.52783 25.901 8.91443 29.2876 13.0772 29.2876C17.2399 29.2876 20.6265 25.901 20.6265 21.7383C20.6265 17.5756 17.2399 14.189 13.0772 14.189ZM13.0772 26.9439C10.2068 26.9439 7.87158 24.6087 7.87158 21.7383C7.87158 18.8679 10.2068 16.5327 13.0772 16.5327C15.9476 16.5327 18.2828 18.8679 18.2828 21.7383C18.2828 24.6087 15.9474 26.9439 13.0772 26.9439Z" fill="#FFF"/>
<path d="M13.6379 19.9199L12.6858 20.872L12.3637 20.6897C11.8004 20.3706 11.0855 20.5689 10.7666 21.1318C10.4477 21.6951 10.6457 22.4101 11.2089 22.729L12.3066 23.3507C12.4873 23.4531 12.6861 23.5029 12.8836 23.5029C13.187 23.5029 13.487 23.3852 13.7126 23.1597L15.2951 21.5772C15.7527 21.1195 15.7528 20.3775 15.2952 19.9198C14.8375 19.4625 14.0955 19.4625 13.6379 19.9199Z" fill="#FFF"/>
<path d="M38.1478 22.312H23.7827C23.1355 22.312 22.6108 22.8367 22.6108 23.4839C22.6108 24.131 23.1355 24.6558 23.7827 24.6558H38.1478C38.795 24.6558 39.3197 24.131 39.3197 23.4839C39.3197 22.8368 38.795 22.312 38.1478 22.312Z" fill="#FFF"/>
<path d="M23.7827 17.6391C23.1355 17.6391 22.6108 18.1639 22.6108 18.811C22.6108 19.4582 23.1355 19.9828 23.7827 19.9828H33.1212C33.7684 19.9828 34.293 19.4582 34.293 18.811C34.293 18.1639 33.7684 17.6391 33.1212 17.6391H23.7827Z" fill="#FFF"/>
<path d="M13.0772 33.851C8.91443 33.851 5.52783 37.2376 5.52783 41.4003C5.52783 45.563 8.91443 48.9496 13.0772 48.9496C17.2399 48.9496 20.6265 45.563 20.6265 41.4003C20.6265 37.2376 17.2399 33.851 13.0772 33.851ZM13.0772 46.6059C10.2068 46.6059 7.87158 44.2707 7.87158 41.4003C7.87158 38.5299 10.2068 36.1947 13.0772 36.1947C15.9476 36.1947 18.2828 38.5299 18.2828 41.4003C18.2828 44.2707 15.9474 46.6059 13.0772 46.6059Z" fill="#FFF"/>
<path d="M13.6379 39.5819L12.6858 40.5341L12.3637 40.3518C11.8004 40.0327 11.0855 40.2309 10.7666 40.7939C10.4477 41.3571 10.6457 42.0722 11.2089 42.3911L12.3066 43.0128C12.4873 43.1152 12.6861 43.165 12.8836 43.165C13.187 43.165 13.487 43.0473 13.7127 42.8218L15.2952 41.2391C15.7528 40.7815 15.7528 40.0395 15.2951 39.5818C14.8376 39.1243 14.0957 39.1243 13.6379 39.5819Z" fill="#FFF"/>
<path d="M38.1478 41.9741H23.7827C23.1355 41.9741 22.6108 42.4988 22.6108 43.1459C22.6108 43.793 23.1355 44.3178 23.7827 44.3178H38.1478C38.795 44.3178 39.3197 43.793 39.3197 43.1459C39.3197 42.4987 38.795 41.9741 38.1478 41.9741Z" fill="#FFF"/>
<path d="M23.7827 39.6448H33.1212C33.7684 39.6448 34.293 39.1201 34.293 38.473C34.293 37.8259 33.7684 37.3011 33.1212 37.3011H23.7827C23.1355 37.3011 22.6108 37.8259 22.6108 38.473C22.6108 39.1201 23.1355 39.6448 23.7827 39.6448Z" fill="#FFF"/>
<path d="M41.7218 0.0585938H3.12598C1.40227 0.0585938 0 1.46086 0 3.18457V52.1279C0 53.8516 1.40227 55.2539 3.12598 55.2539H41.7218C43.4455 55.2539 44.8478 53.8516 44.8478 52.1279V3.18457C44.8478 1.46086 43.4454 0.0585938 41.7218 0.0585938ZM42.504 52.1279C42.504 52.5593 42.1532 52.9102 41.7218 52.9102H3.12598C2.69461 52.9102 2.34375 52.5593 2.34375 52.1279V3.18457C2.34375 2.7532 2.69461 2.40234 3.12598 2.40234H41.7218C42.1532 2.40234 42.504 2.7532 42.504 3.18457V52.1279Z" fill="#FFF"/>
<path d="M10.4941 10.3885H34.3539C35.0011 10.3885 35.5257 9.86372 35.5257 9.21661C35.5257 8.5695 35.0011 8.04474 34.3539 8.04474H10.4941C9.84691 8.04474 9.32227 8.5695 9.32227 9.21661C9.32227 9.86384 9.84691 10.3885 10.4941 10.3885Z" fill="#FFF"/>
</svg>
